# xmcd
#
# Track frame offsets:
#	150
#	6160
#	23842
#	36460
#	51292
#	70300
#	85467
#	105480
#	118029
#	133307
#
# Disc length: 2132 seconds
#
# Revision: 0
# Processed by: cddbd v1.5.2PL0 Copyright (c) Steve Scherf et al.
# Submitted via: dBpowerAMP V4.0
#
DISCID=8c08520a
DTITLE=The Bill Gaither Trio - There's Something About That Name
DYEAR=2005
DGENRE=Gospel
TTITLE0=Joy In The Camp
TTITLE1=Kum Ba Yah
TTITLE2=I'll Fly Away
TTITLE3=He Touched Me
TTITLE4=The King Is Coming
TTITLE5=The Old Rugged Cross Made The Difference
TTITLE6=There's Something About That Name
TTITLE7=In The Upper Room
TTITLE8=Something Beautiful
TTITLE9=Because He Lives
EXTD=
EXTT0=
EXTT1=
EXTT2=
EXTT3=
EXTT4=
EXTT5=
EXTT6=
EXTT7=
EXTT8=
EXTT9=
PLAYORDER=
